  0
SECTION
  2
HEADER
  9
$ACADVER
  1
AC1009
  9
$DWGCODEPAGE
  3
ANSI_1252
  9
$INSBASE
 10
0.0
 20
0.0
 30
0.0
  9
$EXTMIN
 10
1e+20
 20
1e+20
 30
1e+20
  9
$EXTMAX
 10
-1e+20
 20
-1e+20
 30
-1e+20
  9
$LIMMIN
 10
0.0
 20
0.0
  9
$LIMMAX
 10
420.0
 20
297.0
  9
$ORTHOMODE
 70
0
  9
$REGENMODE
 70
1
  9
$FILLMODE
 70
1
  9
$DRAGMODE
 70
2
  9
$QTEXTMODE
 70
0
  9
$MIRRTEXT
 70
1
  9
$OSMODE
 70
20583
  9
$LTSCALE
 40
1.0
  9
$ATTMODE
 70
1
  9
$TEXTSIZE
 40
2.5
  9
$TRACEWID
 40
1.0
  9
$TEXTSTYLE
  7
Standard
  9
$CLAYER
  8
0
  9
$CELTYPE
  6
ByLayer
  9
$CECOLOR
 62
256
  9
$DIMSCALE
 40
1.0
  9
$DIMASZ
 40
2.5
  9
$DIMEXO
 40
0.625
  9
$DIMDLI
 40
3.75
  9
$DIMRND
 40
0.0
  9
$DIMDLE
 40
0.0
  9
$DIMEXE
 40
1.25
  9
$DIMTP
 40
0.0
  9
$DIMTM
 40
0.0
  9
$DIMTXT
 40
2.5
  9
$DIMCEN
 40
2.5
  9
$DIMTSZ
 40
0.0
  9
$DIMTOL
 70
0
  9
$DIMLIM
 70
0
  9
$DIMTIH
 70
0
  9
$DIMTOH
 70
0
  9
$DIMSE1
 70
0
  9
$DIMSE2
 70
0
  9
$DIMTAD
 70
1
  9
$DIMZIN
 70
8
  9
$DIMBLK
  1

  9
$DIMASO
 70
1
  9
$DIMSHO
 70
1
  9
$DIMPOST
  1

  9
$DIMAPOST
  1

  9
$DIMALT
 70
0
  9
$DIMALTD
 70
3
  9
$DIMALTF
 40
0.03937007874
  9
$DIMLFAC
 40
1.0
  9
$DIMTOFL
 70
1
  9
$DIMTVP
 40
0.0
  9
$DIMTIX
 70
0
  9
$DIMSOXD
 70
0
  9
$DIMSAH
 70
0
  9
$DIMBLK1
  1

  9
$DIMBLK2
  1

  9
$DIMSTYLE
  2
ISO-25
  9
$DIMCLRD
 70
0
  9
$DIMCLRE
 70
0
  9
$DIMCLRT
 70
0
  9
$DIMTFAC
 40
1.0
  9
$DIMGAP
 40
0.625
  9
$COORDS
 70
1
  9
$ATTDIA
 70
0
  9
$ATTREQ
 70
1
  9
$HANDLING
 70
1
  9
$LUNITS
 70
2
  9
$LUPREC
 70
4
  9
$SKETCHINC
 40
1.0
  9
$FILLETRAD
 40
10.0
  9
$AUNITS
 70
0
  9
$AUPREC
 70
2
  9
$MENU
  1
.
  9
$ELEVATION
 40
0.0
  9
$PELEVATION
 40
0.0
  9
$THICKNESS
 40
0.0
  9
$LIMCHECK
 70
0
  9
$CHAMFERA
 40
0.0
  9
$CHAMFERB
 40
0.0
  9
$SKPOLY
 70
0
  9
$TDCREATE
 40
2461319.8661226854
  9
$TDUPDATE
 40
2461319.8661226854
  9
$TDINDWG
 40
0.0
  9
$TDUSRTIMER
 40
0.0
  9
$USRTIMER
 70
1
  9
$ANGBASE
 50
0.0
  9
$ANGDIR
 70
0
  9
$PDMODE
 70
0
  9
$PDSIZE
 40
0.0
  9
$PLINEWID
 40
0.0
  9
$SPLFRAME
 70
0
  9
$SPLINETYPE
 70
6
  9
$SPLINESEGS
 70
8
  9
$HANDSEED
  5
300
  9
$SURFTAB1
 70
6
  9
$SURFTAB2
 70
6
  9
$SURFTYPE
 70
6
  9
$SURFU
 70
6
  9
$SURFV
 70
6
  9
$UCSNAME
  2

  9
$UCSORG
 10
0.0
 20
0.0
 30
0.0
  9
$UCSXDIR
 10
1.0
 20
0.0
 30
0.0
  9
$UCSYDIR
 10
0.0
 20
1.0
 30
0.0
  9
$PUCSNAME
  2

  9
$PUCSORG
 10
0.0
 20
0.0
 30
0.0
  9
$PUCSXDIR
 10
1.0
 20
0.0
 30
0.0
  9
$PUCSYDIR
 10
0.0
 20
1.0
 30
0.0
  9
$USERI1
 70
0
  9
$USERI2
 70
0
  9
$USERI3
 70
0
  9
$USERI4
 70
0
  9
$USERI5
 70
0
  9
$USERR1
 40
0.0
  9
$USERR2
 40
0.0
  9
$USERR3
 40
0.0
  9
$USERR4
 40
0.0
  9
$USERR5
 40
0.0
  9
$WORLDVIEW
 70
1
  9
$SHADEDGE
 70
3
  9
$SHADEDIF
 70
70
  9
$TILEMODE
 70
1
  9
$MAXACTVP
 70
64
  9
$PLIMCHECK
 70
0
  9
$PEXTMIN
 10
1e+20
 20
1e+20
 30
1e+20
  9
$PEXTMAX
 10
-1e+20
 20
-1e+20
 30
-1e+20
  9
$PLIMMIN
 10
0.0
 20
0.0
  9
$PLIMMAX
 10
420.0
 20
297.0
  9
$UNITMODE
 70
0
  9
$VISRETAIN
 70
1
  9
$PLINEGEN
 70
0
  9
$PSLTSCALE
 70
1
  0
ENDSEC
  0
SECTION
  2
TABLES
  0
TABLE
  2
VPORT
 70
1
  0
VPORT
  5
23
  2
*Active
 70
0
 10
0.0
 20
0.0
 11
1.0
 21
1.0
 12
0.0
 22
0.0
 13
0.0
 23
0.0
 14
0.5
 24
0.5
 15
0.5
 25
0.5
 16
0.0
 26
0.0
 36
1.0
 17
0.0
 27
0.0
 37
0.0
 40
1000.0
 41
1.34
 42
50.0
 43
0.0
 44
0.0
 50
0.0
 51
0.0
 71
0
 72
1000
 73
1
 74
3
 75
0
 76
0
 77
0
 78
0
  0
ENDTAB
  0
TABLE
  2
LTYPE
 70
3
  0
LTYPE
  5
24
  2
ByBlock
 70
0
  3

 72
65
 73
0
 40
0.0
  0
LTYPE
  5
25
  2
ByLayer
 70
0
  3

 72
65
 73
0
 40
0.0
  0
LTYPE
  5
26
  2
Continuous
 70
0
  3

 72
65
 73
0
 40
0.0
  0
ENDTAB
  0
TABLE
  2
LAYER
 70
6
  0
LAYER
  5
27
  2
0
 70
0
 62
7
  6
Continuous
  0
LAYER
  5
28
  2
Defpoints
 70
0
 62
7
  6
Continuous
  0
LAYER
  5
2D
  2
FLANGE
 70
0
 62
1
  6
Continuous
  0
LAYER
  5
2E
  2
CUT
 70
0
 62
1
  6
Continuous
  0
LAYER
  5
2F
  2
HATCH
 70
0
 62
5
  6
Continuous
  0
LAYER
  5
30
  2
HOLE
 70
0
 62
3
  6
Continuous
  0
ENDTAB
  0
TABLE
  2
STYLE
 70
1
  0
STYLE
  5
29
  2
Standard
 70
0
 40
0.0
 41
1.0
 50
0.0
 71
0
 42
2.5
  3
txt
  4

  0
ENDTAB
  0
TABLE
  2
VIEW
 70
0
  0
ENDTAB
  0
TABLE
  2
UCS
 70
0
  0
ENDTAB
  0
TABLE
  2
APPID
 70
4
  0
APPID
  5
2A
  2
ACAD
 70
0
  0
APPID
  5
21F
  2
HATCHBACKGROUNDCOLOR
 70
0
  0
APPID
  5
220
  2
EZDXF
 70
0
  0
APPID
  5
2FF
  2
WMARK
 70
0
  0
ENDTAB
  0
TABLE
  2
DIMSTYLE
 70
1
  0
DIMSTYLE
105
2B
  2
Standard
 70
0
  3

  4

  5

  6

  7

 40
1.0
 41
2.5
 42
0.625
 43
3.75
 44
1.25
 45
0.0
 46
0.0
 47
0.0
 48
0.0
140
2.5
141
2.5
142
0.0
143
0.03937007874
144
1.0
145
0.0
146
1.0
147
0.625
 71
0
 72
0
 73
0
 74
0
 75
0
 76
0
 77
1
 78
8
170
0
171
3
172
1
173
0
174
0
175
0
176
0
177
0
178
0
  0
ENDTAB
  0
ENDSEC
  0
SECTION
  2
BLOCKS
  0
BLOCK
  5
18
  8
0
  2
$Model_Space
 70
0
 10
0.0
 20
0.0
 30
0.0
  3
$Model_Space
  1

1001
EZDXF
1000
CREATED_BY_EZDXF
1000
1.4.4 @ 2026-10-05T05:50:32.198857+00:00
1000
WRITTEN_BY_EZDXF
1000
1.4.4 @ 2026-10-05T12:47:13.571862+00:00
  0
ENDBLK
  5
19
  8
0
  0
BLOCK
  5
1C
  8
0
  2
$Paper_Space
 70
0
 10
0.0
 20
0.0
 30
0.0
  3
$Paper_Space
  1

  0
ENDBLK
  5
1D
  8
0
  0
ENDSEC
  0
SECTION
  2
ENTITIES
  0
POLYLINE
  5
31
  8
CUT
 66
1
 10
0.0
 20
0.0
 30
0.0
 70
1
1001
WMARK
1000
\U+5929\U+6daf\U+4f55\U+5904\U+4e0d\U+76f8\U+9022 · Baorong Lamp Shell · 2026-10-05
  0
VERTEX
  5
33
  8
CUT
 10
0.0
 20
0.0
 30
0.0
 70
0
  0
VERTEX
  5
34
  8
CUT
 10
600.0
 20
0.0
 30
0.0
 70
0
  0
VERTEX
  5
35
  8
CUT
 10
600.0
 20
300.0
 30
0.0
 70
0
  0
VERTEX
  5
36
  8
CUT
 10
0.0
 20
300.0
 30
0.0
 70
0
  0
VERTEX
  5
37
  8
CUT
 10
0.0
 20
0.0
 30
0.0
 70
0
  0
SEQEND
  5
32
  8
0
  0
LINE
  5
38
  8
FLANGE
 10
150.0
 20
0.0
 30
0.0
 11
150.0
 21
18.0
 31
0.0
  0
LINE
  5
39
  8
FLANGE
 10
150.0
 20
246.0
 30
0.0
 11
150.0
 21
300.0
 31
0.0
  0
LINE
  5
3A
  8
FLANGE
 10
300.0
 20
0.0
 30
0.0
 11
300.0
 21
18.0
 31
0.0
  0
LINE
  5
3B
  8
FLANGE
 10
300.0
 20
247.0
 30
0.0
 11
300.0
 21
300.0
 31
0.0
  0
LINE
  5
3C
  8
FLANGE
 10
450.0
 20
0.0
 30
0.0
 11
450.0
 21
18.0
 31
0.0
  0
LINE
  5
3D
  8
FLANGE
 10
450.0
 20
249.0
 30
0.0
 11
450.0
 21
300.0
 31
0.0
  0
LINE
  5
3E
  8
FLANGE
 10
0.0
 20
269.0
 30
0.0
 11
30.0
 21
269.0
 31
0.0
  0
LINE
  5
3F
  8
FLANGE
 10
135.0
 20
269.0
 30
0.0
 11
165.0
 21
269.0
 31
0.0
  0
LINE
  5
40
  8
FLANGE
 10
285.0
 20
269.0
 30
0.0
 11
315.0
 21
269.0
 31
0.0
  0
LINE
  5
41
  8
FLANGE
 10
435.0
 20
269.0
 30
0.0
 11
465.0
 21
269.0
 31
0.0
  0
LINE
  5
42
  8
FLANGE
 10
570.0
 20
269.0
 30
0.0
 11
600.0
 21
269.0
 31
0.0
  0
CIRCLE
  5
43
  8
HOLE
 10
15.0
 20
285.0
 30
0.0
 40
3.5
  0
CIRCLE
  5
44
  8
HOLE
 10
135.0
 20
285.0
 30
0.0
 40
3.5
  0
CIRCLE
  5
45
  8
HOLE
 10
165.0
 20
285.0
 30
0.0
 40
3.5
  0
CIRCLE
  5
46
  8
HOLE
 10
285.0
 20
285.0
 30
0.0
 40
3.5
  0
CIRCLE
  5
47
  8
HOLE
 10
315.0
 20
285.0
 30
0.0
 40
3.5
  0
CIRCLE
  5
48
  8
HOLE
 10
435.0
 20
285.0
 30
0.0
 40
3.5
  0
CIRCLE
  5
49
  8
HOLE
 10
465.0
 20
285.0
 30
0.0
 40
3.5
  0
CIRCLE
  5
4A
  8
HOLE
 10
585.0
 20
285.0
 30
0.0
 40
3.5
  0
POLYLINE
  5
4B
  8
HATCH
 66
1
 10
0.0
 20
0.0
 30
0.0
 70
1
  0
VERTEX
  5
4D
  8
HATCH
 10
120.0556095378965
 20
141.76776695296635
 30
0.0
 70
0
  0
VERTEX
  5
4E
  8
HATCH
 10
128.23223304703365
 20
149.94439046210348
 30
0.0
 42
-1.0
 70
0
  0
VERTEX
  5
4F
  8
HATCH
 10
131.76776695296635
 20
146.40885655617078
 30
0.0
 70
0
  0
VERTEX
  5
50
  8
HATCH
 10
123.59114344382924
 20
138.23223304703365
 30
0.0
 42
-1.0
 70
0
  0
SEQEND
  5
4C
  8
0
  0
POLYLINE
  5
51
  8
HATCH
 66
1
 10
0.0
 20
0.0
 30
0.0
 70
1
  0
VERTEX
  5
53
  8
HATCH
 10
103.08504678941934
 20
141.76776695296635
 30
0.0
 70
0
  0
VERTEX
  5
54
  8
HATCH
 10
128.23223304703365
 20
166.91495321058065
 30
0.0
 42
-1.0
 70
0
  0
VERTEX
  5
55
  8
HATCH
 10
131.76776695296635
 20
163.37941930464794
 30
0.0
 70
0
  0
VERTEX
  5
56
  8
HATCH
 10
106.62058069535207
 20
138.23223304703365
 30
0.0
 42
-1.0
 70
0
  0
SEQEND
  5
52
  8
0
  0
POLYLINE
  5
57
  8
HATCH
 66
1
 10
0.0
 20
0.0
 30
0.0
 70
1
  0
VERTEX
  5
59
  8
HATCH
 10
86.11448404094219
 20
141.76776695296635
 30
0.0
 70
0
  0
VERTEX
  5
5A
  8
HATCH
 10
128.23223304703362
 20
183.8855159590578
 30
0.0
 42
-1.0
 70
0
  0
VERTEX
  5
5B
  8
HATCH
 10
131.76776695296638
 20
180.3499820531251
 30
0.0
 70
0
  0
VERTEX
  5
5C
  8
HATCH
 10
89.65001794687493
 20
138.23223304703365
 30
0.0
 42
-1.0
 70
0
  0
SEQEND
  5
58
  8
0
  0
POLYLINE
  5
5D
  8
HATCH
 66
1
 10
0.0
 20
0.0
 30
0.0
 70
1
  0
VERTEX
  5
5F
  8
HATCH
 10
69.14392129246507
 20
141.76776695296638
 30
0.0
 70
0
  0
VERTEX
  5
60
  8
HATCH
 10
128.23223304703362
 20
200.85607870753495
 30
0.0
 42
-1.0
 70
0
  0
VERTEX
  5
61
  8
HATCH
 10
131.76776695296638
 20
197.32054480160218
 30
0.0
 70
0
  0
VERTEX
  5
62
  8
HATCH
 10
72.6794551983978
 20
138.23223304703362
 30
0.0
 42
-1.0
 70
0
  0
SEQEND
  5
5E
  8
0
  0
POLYLINE
  5
63
  8
HATCH
 66
1
 10
0.0
 20
0.0
 30
0.0
 70
1
  0
VERTEX
  5
65
  8
HATCH
 10
52.1733585439879
 20
141.76776695296635
 30
0.0
 70
0
  0
VERTEX
  5
66
  8
HATCH
 10
128.23223304703365
 20
217.82664145601208
 30
0.0
 42
-1.0
 70
0
  0
VERTEX
  5
67
  8
HATCH
 10
131.76776695296635
 20
214.29110755007937
 30
0.0
 70
0
  0
VERTEX
  5
68
  8
HATCH
 10
55.70889244992064
 20
138.23223304703365
 30
0.0
 42
-1.0
 70
0
  0
SEQEND
  5
64
  8
0
  0
POLYLINE
  5
69
  8
HATCH
 66
1
 10
0.0
 20
0.0
 30
0.0
 70
1
  0
VERTEX
  5
6B
  8
HATCH
 10
35.20279579551078
 20
141.76776695296638
 30
0.0
 70
0
  0
VERTEX
  5
6C
  8
HATCH
 10
128.23223304703365
 20
234.79720420448922
 30
0.0
 42
-1.0
 70
0
  0
VERTEX
  5
6D
  8
HATCH
 10
131.76776695296635
 20
231.26167029855645
 30
0.0
 70
0
  0
VERTEX
  5
6E
  8
HATCH
 10
38.73832970144352
 20
138.23223304703362
 30
0.0
 42
-1.0
 70
0
  0
SEQEND
  5
6A
  8
0
  0
POLYLINE
  5
6F
  8
HATCH
 66
1
 10
0.0
 20
0.0
 30
0.0
 70
1
  0
VERTEX
  5
71
  8
HATCH
 10
18.23223304703364
 20
141.76776695296635
 30
0.0
 70
0
  0
VERTEX
  5
72
  8
HATCH
 10
128.23223304703365
 20
251.76776695296635
 30
0.0
 42
-1.0
 70
0
  0
VERTEX
  5
73
  8
HATCH
 10
131.76776695296635
 20
248.23223304703365
 30
0.0
 70
0
  0
VERTEX
  5
74
  8
HATCH
 10
21.767766952966376
 20
138.23223304703365
 30
0.0
 42
-1.0
 70
0
  0
SEQEND
  5
70
  8
0
  0
POLYLINE
  5
75
  8
HATCH
 66
1
 10
0.0
 20
0.0
 30
0.0
 70
1
  0
VERTEX
  5
77
  8
HATCH
 10
18.23223304703363
 20
158.73832970144355
 30
0.0
 70
0
  0
VERTEX
  5
78
  8
HATCH
 10
111.26167029855648
 20
251.76776695296638
 30
0.0
 42
-1.0
 70
0
  0
VERTEX
  5
79
  8
HATCH
 10
114.79720420448922
 20
248.23223304703362
 30
0.0
 70
0
  0
VERTEX
  5
7A
  8
HATCH
 10
21.76776695296637
 20
155.20279579551078
 30
0.0
 42
-1.0
 70
0
  0
SEQEND
  5
76
  8
0
  0
POLYLINE
  5
7B
  8
HATCH
 66
1
 10
0.0
 20
0.0
 30
0.0
 70
1
  0
VERTEX
  5
7D
  8
HATCH
 10
18.23223304703363
 20
175.70889244992063
 30
0.0
 70
0
  0
VERTEX
  5
7E
  8
HATCH
 10
94.29110755007936
 20
251.76776695296635
 30
0.0
 42
-1.0
 70
0
  0
VERTEX
  5
7F
  8
HATCH
 10
97.8266414560121
 20
248.23223304703365
 30
0.0
 70
0
  0
VERTEX
  5
80
  8
HATCH
 10
21.76776695296637
 20
172.17335854398792
 30
0.0
 42
-1.0
 70
0
  0
SEQEND
  5
7C
  8
0
  0
POLYLINE
  5
81
  8
HATCH
 66
1
 10
0.0
 20
0.0
 30
0.0
 70
1
  0
VERTEX
  5
83
  8
HATCH
 10
18.23223304703363
 20
192.67945519839782
 30
0.0
 70
0
  0
VERTEX
  5
84
  8
HATCH
 10
77.3205448016022
 20
251.76776695296638
 30
0.0
 42
-1.0
 70
0
  0
VERTEX
  5
85
  8
HATCH
 10
80.85607870753493
 20
248.23223304703362
 30
0.0
 70
0
  0
VERTEX
  5
86
  8
HATCH
 10
21.76776695296637
 20
189.14392129246505
 30
0.0
 42
-1.0
 70
0
  0
SEQEND
  5
82
  8
0
  0
POLYLINE
  5
87
  8
HATCH
 66
1
 10
0.0
 20
0.0
 30
0.0
 70
1
  0
VERTEX
  5
89
  8
HATCH
 10
18.23223304703363
 20
209.6500179468749
 30
0.0
 70
0
  0
VERTEX
  5
8A
  8
HATCH
 10
60.349982053125075
 20
251.76776695296635
 30
0.0
 42
-1.0
 70
0
  0
VERTEX
  5
8B
  8
HATCH
 10
63.88551595905781
 20
248.23223304703365
 30
0.0
 70
0
  0
VERTEX
  5
8C
  8
HATCH
 10
21.76776695296637
 20
206.1144840409422
 30
0.0
 42
-1.0
 70
0
  0
SEQEND
  5
88
  8
0
  0
POLYLINE
  5
8D
  8
HATCH
 66
1
 10
0.0
 20
0.0
 30
0.0
 70
1
  0
VERTEX
  5
8F
  8
HATCH
 10
18.23223304703363
 20
226.62058069535206
 30
0.0
 70
0
  0
VERTEX
  5
90
  8
HATCH
 10
43.379419304647925
 20
251.76776695296635
 30
0.0
 42
-1.0
 70
0
  0
VERTEX
  5
91
  8
HATCH
 10
46.91495321058066
 20
248.23223304703365
 30
0.0
 70
0
  0
VERTEX
  5
92
  8
HATCH
 10
21.76776695296637
 20
223.08504678941935
 30
0.0
 42
-1.0
 70
0
  0
SEQEND
  5
8E
  8
0
  0
POLYLINE
  5
93
  8
HATCH
 66
1
 10
0.0
 20
0.0
 30
0.0
 70
1
  0
VERTEX
  5
95
  8
HATCH
 10
18.23223304703363
 20
243.59114344382925
 30
0.0
 70
0
  0
VERTEX
  5
96
  8
HATCH
 10
26.408856556170768
 20
251.76776695296638
 30
0.0
 42
-1.0
 70
0
  0
VERTEX
  5
97
  8
HATCH
 10
29.944390462103506
 20
248.23223304703362
 30
0.0
 70
0
  0
VERTEX
  5
98
  8
HATCH
 10
21.76776695296637
 20
240.0556095378965
 30
0.0
 42
-1.0
 70
0
  0
SEQEND
  5
94
  8
0
  0
POLYLINE
  5
99
  8
HATCH
 66
1
 10
0.0
 20
0.0
 30
0.0
 70
1
  0
VERTEX
  5
9B
  8
HATCH
 10
170.0
 20
145.0
 30
0.0
 70
0
  0
VERTEX
  5
9C
  8
HATCH
 10
200.0
 20
145.0
 30
0.0
 42
-1.0
 70
0
  0
VERTEX
  5
9D
  8
HATCH
 10
200.0
 20
140.0
 30
0.0
 70
0
  0
VERTEX
  5
9E
  8
HATCH
 10
170.0
 20
140.0
 30
0.0
 42
-1.0
 70
0
  0
SEQEND
  5
9A
  8
0
  0
POLYLINE
  5
9F
  8
HATCH
 66
1
 10
0.0
 20
0.0
 30
0.0
 70
1
  0
VERTEX
  5
A1
  8
HATCH
 10
210.0
 20
145.0
 30
0.0
 70
0
  0
VERTEX
  5
A2
  8
HATCH
 10
240.0
 20
145.0
 30
0.0
 42
-1.0
 70
0
  0
VERTEX
  5
A3
  8
HATCH
 10
240.0
 20
140.0
 30
0.0
 70
0
  0
VERTEX
  5
A4
  8
HATCH
 10
210.0
 20
140.0
 30
0.0
 42
-1.0
 70
0
  0
SEQEND
  5
A0
  8
0
  0
POLYLINE
  5
A5
  8
HATCH
 66
1
 10
0.0
 20
0.0
 30
0.0
 70
1
  0
VERTEX
  5
A7
  8
HATCH
 10
250.0
 20
145.0
 30
0.0
 70
0
  0
VERTEX
  5
A8
  8
HATCH
 10
280.0
 20
145.0
 30
0.0
 42
-1.0
 70
0
  0
VERTEX
  5
A9
  8
HATCH
 10
280.0
 20
140.0
 30
0.0
 70
0
  0
VERTEX
  5
AA
  8
HATCH
 10
250.0
 20
140.0
 30
0.0
 42
-1.0
 70
0
  0
SEQEND
  5
A6
  8
0
  0
POLYLINE
  5
AB
  8
HATCH
 66
1
 10
0.0
 20
0.0
 30
0.0
 70
1
  0
VERTEX
  5
AD
  8
HATCH
 10
190.0
 20
160.0
 30
0.0
 70
0
  0
VERTEX
  5
AE
  8
HATCH
 10
220.0
 20
160.0
 30
0.0
 42
-1.0
 70
0
  0
VERTEX
  5
AF
  8
HATCH
 10
220.0
 20
155.0
 30
0.0
 70
0
  0
VERTEX
  5
B0
  8
HATCH
 10
190.0
 20
155.0
 30
0.0
 42
-1.0
 70
0
  0
SEQEND
  5
AC
  8
0
  0
POLYLINE
  5
B1
  8
HATCH
 66
1
 10
0.0
 20
0.0
 30
0.0
 70
1
  0
VERTEX
  5
B3
  8
HATCH
 10
230.0
 20
160.0
 30
0.0
 70
0
  0
VERTEX
  5
B4
  8
HATCH
 10
260.0
 20
160.0
 30
0.0
 42
-1.0
 70
0
  0
VERTEX
  5
B5
  8
HATCH
 10
260.0
 20
155.0
 30
0.0
 70
0
  0
VERTEX
  5
B6
  8
HATCH
 10
230.0
 20
155.0
 30
0.0
 42
-1.0
 70
0
  0
SEQEND
  5
B2
  8
0
  0
POLYLINE
  5
B7
  8
HATCH
 66
1
 10
0.0
 20
0.0
 30
0.0
 70
1
  0
VERTEX
  5
B9
  8
HATCH
 10
170.0
 20
175.0
 30
0.0
 70
0
  0
VERTEX
  5
BA
  8
HATCH
 10
200.0
 20
175.0
 30
0.0
 42
-1.0
 70
0
  0
VERTEX
  5
BB
  8
HATCH
 10
200.0
 20
170.0
 30
0.0
 70
0
  0
VERTEX
  5
BC
  8
HATCH
 10
170.0
 20
170.0
 30
0.0
 42
-1.0
 70
0
  0
SEQEND
  5
B8
  8
0
  0
POLYLINE
  5
BD
  8
HATCH
 66
1
 10
0.0
 20
0.0
 30
0.0
 70
1
  0
VERTEX
  5
BF
  8
HATCH
 10
210.0
 20
175.0
 30
0.0
 70
0
  0
VERTEX
  5
C0
  8
HATCH
 10
240.0
 20
175.0
 30
0.0
 42
-1.0
 70
0
  0
VERTEX
  5
C1
  8
HATCH
 10
240.0
 20
170.0
 30
0.0
 70
0
  0
VERTEX
  5
C2
  8
HATCH
 10
210.0
 20
170.0
 30
0.0
 42
-1.0
 70
0
  0
SEQEND
  5
BE
  8
0
  0
POLYLINE
  5
C3
  8
HATCH
 66
1
 10
0.0
 20
0.0
 30
0.0
 70
1
  0
VERTEX
  5
C5
  8
HATCH
 10
250.0
 20
175.0
 30
0.0
 70
0
  0
VERTEX
  5
C6
  8
HATCH
 10
280.0
 20
175.0
 30
0.0
 42
-1.0
 70
0
  0
VERTEX
  5
C7
  8
HATCH
 10
280.0
 20
170.0
 30
0.0
 70
0
  0
VERTEX
  5
C8
  8
HATCH
 10
250.0
 20
170.0
 30
0.0
 42
-1.0
 70
0
  0
SEQEND
  5
C4
  8
0
  0
POLYLINE
  5
C9
  8
HATCH
 66
1
 10
0.0
 20
0.0
 30
0.0
 70
1
  0
VERTEX
  5
CB
  8
HATCH
 10
190.0
 20
190.0
 30
0.0
 70
0
  0
VERTEX
  5
CC
  8
HATCH
 10
220.0
 20
190.0
 30
0.0
 42
-1.0
 70
0
  0
VERTEX
  5
CD
  8
HATCH
 10
220.0
 20
185.0
 30
0.0
 70
0
  0
VERTEX
  5
CE
  8
HATCH
 10
190.0
 20
185.0
 30
0.0
 42
-1.0
 70
0
  0
SEQEND
  5
CA
  8
0
  0
POLYLINE
  5
CF
  8
HATCH
 66
1
 10
0.0
 20
0.0
 30
0.0
 70
1
  0
VERTEX
  5
D1
  8
HATCH
 10
230.0
 20
190.0
 30
0.0
 70
0
  0
VERTEX
  5
D2
  8
HATCH
 10
260.0
 20
190.0
 30
0.0
 42
-1.0
 70
0
  0
VERTEX
  5
D3
  8
HATCH
 10
260.0
 20
185.0
 30
0.0
 70
0
  0
VERTEX
  5
D4
  8
HATCH
 10
230.0
 20
185.0
 30
0.0
 42
-1.0
 70
0
  0
SEQEND
  5
D0
  8
0
  0
POLYLINE
  5
D5
  8
HATCH
 66
1
 10
0.0
 20
0.0
 30
0.0
 70
1
  0
VERTEX
  5
D7
  8
HATCH
 10
170.0
 20
205.0
 30
0.0
 70
0
  0
VERTEX
  5
D8
  8
HATCH
 10
200.0
 20
205.0
 30
0.0
 42
-1.0
 70
0
  0
VERTEX
  5
D9
  8
HATCH
 10
200.0
 20
200.0
 30
0.0
 70
0
  0
VERTEX
  5
DA
  8
HATCH
 10
170.0
 20
200.0
 30
0.0
 42
-1.0
 70
0
  0
SEQEND
  5
D6
  8
0
  0
POLYLINE
  5
DB
  8
HATCH
 66
1
 10
0.0
 20
0.0
 30
0.0
 70
1
  0
VERTEX
  5
DD
  8
HATCH
 10
210.0
 20
205.0
 30
0.0
 70
0
  0
VERTEX
  5
DE
  8
HATCH
 10
240.0
 20
205.0
 30
0.0
 42
-1.0
 70
0
  0
VERTEX
  5
DF
  8
HATCH
 10
240.0
 20
200.0
 30
0.0
 70
0
  0
VERTEX
  5
E0
  8
HATCH
 10
210.0
 20
200.0
 30
0.0
 42
-1.0
 70
0
  0
SEQEND
  5
DC
  8
0
  0
POLYLINE
  5
E1
  8
HATCH
 66
1
 10
0.0
 20
0.0
 30
0.0
 70
1
  0
VERTEX
  5
E3
  8
HATCH
 10
250.0
 20
205.0
 30
0.0
 70
0
  0
VERTEX
  5
E4
  8
HATCH
 10
280.0
 20
205.0
 30
0.0
 42
-1.0
 70
0
  0
VERTEX
  5
E5
  8
HATCH
 10
280.0
 20
200.0
 30
0.0
 70
0
  0
VERTEX
  5
E6
  8
HATCH
 10
250.0
 20
200.0
 30
0.0
 42
-1.0
 70
0
  0
SEQEND
  5
E2
  8
0
  0
POLYLINE
  5
E7
  8
HATCH
 66
1
 10
0.0
 20
0.0
 30
0.0
 70
1
  0
VERTEX
  5
E9
  8
HATCH
 10
190.0
 20
220.0
 30
0.0
 70
0
  0
VERTEX
  5
EA
  8
HATCH
 10
220.0
 20
220.0
 30
0.0
 42
-1.0
 70
0
  0
VERTEX
  5
EB
  8
HATCH
 10
220.0
 20
215.0
 30
0.0
 70
0
  0
VERTEX
  5
EC
  8
HATCH
 10
190.0
 20
215.0
 30
0.0
 42
-1.0
 70
0
  0
SEQEND
  5
E8
  8
0
  0
POLYLINE
  5
ED
  8
HATCH
 66
1
 10
0.0
 20
0.0
 30
0.0
 70
1
  0
VERTEX
  5
EF
  8
HATCH
 10
230.0
 20
220.0
 30
0.0
 70
0
  0
VERTEX
  5
F0
  8
HATCH
 10
260.0
 20
220.0
 30
0.0
 42
-1.0
 70
0
  0
VERTEX
  5
F1
  8
HATCH
 10
260.0
 20
215.0
 30
0.0
 70
0
  0
VERTEX
  5
F2
  8
HATCH
 10
230.0
 20
215.0
 30
0.0
 42
-1.0
 70
0
  0
SEQEND
  5
EE
  8
0
  0
POLYLINE
  5
F3
  8
HATCH
 66
1
 10
0.0
 20
0.0
 30
0.0
 70
1
  0
VERTEX
  5
F5
  8
HATCH
 10
170.0
 20
235.0
 30
0.0
 70
0
  0
VERTEX
  5
F6
  8
HATCH
 10
200.0
 20
235.0
 30
0.0
 42
-1.0
 70
0
  0
VERTEX
  5
F7
  8
HATCH
 10
200.0
 20
230.0
 30
0.0
 70
0
  0
VERTEX
  5
F8
  8
HATCH
 10
170.0
 20
230.0
 30
0.0
 42
-1.0
 70
0
  0
SEQEND
  5
F4
  8
0
  0
POLYLINE
  5
F9
  8
HATCH
 66
1
 10
0.0
 20
0.0
 30
0.0
 70
1
  0
VERTEX
  5
FB
  8
HATCH
 10
210.0
 20
235.0
 30
0.0
 70
0
  0
VERTEX
  5
FC
  8
HATCH
 10
240.0
 20
235.0
 30
0.0
 42
-1.0
 70
0
  0
VERTEX
  5
FD
  8
HATCH
 10
240.0
 20
230.0
 30
0.0
 70
0
  0
VERTEX
  5
FE
  8
HATCH
 10
210.0
 20
230.0
 30
0.0
 42
-1.0
 70
0
  0
SEQEND
  5
FA
  8
0
  0
POLYLINE
  5
FF
  8
HATCH
 66
1
 10
0.0
 20
0.0
 30
0.0
 70
1
  0
VERTEX
  5
101
  8
HATCH
 10
250.0
 20
235.0
 30
0.0
 70
0
  0
VERTEX
  5
102
  8
HATCH
 10
280.0
 20
235.0
 30
0.0
 42
-1.0
 70
0
  0
VERTEX
  5
103
  8
HATCH
 10
280.0
 20
230.0
 30
0.0
 70
0
  0
VERTEX
  5
104
  8
HATCH
 10
250.0
 20
230.0
 30
0.0
 42
-1.0
 70
0
  0
SEQEND
  5
100
  8
0
  0
POLYLINE
  5
105
  8
HATCH
 66
1
 10
0.0
 20
0.0
 30
0.0
 70
1
  0
VERTEX
  5
107
  8
HATCH
 10
190.0
 20
250.0
 30
0.0
 70
0
  0
VERTEX
  5
108
  8
HATCH
 10
220.0
 20
250.0
 30
0.0
 42
-1.0
 70
0
  0
VERTEX
  5
109
  8
HATCH
 10
220.0
 20
245.0
 30
0.0
 70
0
  0
VERTEX
  5
10A
  8
HATCH
 10
190.0
 20
245.0
 30
0.0
 42
-1.0
 70
0
  0
SEQEND
  5
106
  8
0
  0
POLYLINE
  5
10B
  8
HATCH
 66
1
 10
0.0
 20
0.0
 30
0.0
 70
1
  0
VERTEX
  5
10D
  8
HATCH
 10
230.0
 20
250.0
 30
0.0
 70
0
  0
VERTEX
  5
10E
  8
HATCH
 10
260.0
 20
250.0
 30
0.0
 42
-1.0
 70
0
  0
VERTEX
  5
10F
  8
HATCH
 10
260.0
 20
245.0
 30
0.0
 70
0
  0
VERTEX
  5
110
  8
HATCH
 10
230.0
 20
245.0
 30
0.0
 42
-1.0
 70
0
  0
SEQEND
  5
10C
  8
0
  0
POLYLINE
  5
111
  8
HATCH
 66
1
 10
0.0
 20
0.0
 30
0.0
 70
1
  0
VERTEX
  5
113
  8
HATCH
 10
428.2322330470336
 20
240.05560953789652
 30
0.0
 70
0
  0
VERTEX
  5
114
  8
HATCH
 10
420.0556095378965
 20
248.23223304703365
 30
0.0
 42
-1.0
 70
0
  0
VERTEX
  5
115
  8
HATCH
 10
423.59114344382925
 20
251.76776695296635
 30
0.0
 70
0
  0
VERTEX
  5
116
  8
HATCH
 10
431.7677669529664
 20
243.59114344382922
 30
0.0
 42
-1.0
 70
0
  0
SEQEND
  5
112
  8
0
  0
POLYLINE
  5
117
  8
HATCH
 66
1
 10
0.0
 20
0.0
 30
0.0
 70
1
  0
VERTEX
  5
119
  8
HATCH
 10
428.2322330470336
 20
223.08504678941935
 30
0.0
 70
0
  0
VERTEX
  5
11A
  8
HATCH
 10
403.0850467894193
 20
248.23223304703365
 30
0.0
 42
-1.0
 70
0
  0
VERTEX
  5
11B
  8
HATCH
 10
406.6205806953521
 20
251.76776695296635
 30
0.0
 70
0
  0
VERTEX
  5
11C
  8
HATCH
 10
431.7677669529664
 20
226.62058069535206
 30
0.0
 42
-1.0
 70
0
  0
SEQEND
  5
118
  8
0
  0
POLYLINE
  5
11D
  8
HATCH
 66
1
 10
0.0
 20
0.0
 30
0.0
 70
1
  0
VERTEX
  5
11F
  8
HATCH
 10
428.2322330470336
 20
206.11448404094216
 30
0.0
 70
0
  0
VERTEX
  5
120
  8
HATCH
 10
386.11448404094216
 20
248.23223304703362
 30
0.0
 42
-1.0
 70
0
  0
VERTEX
  5
121
  8
HATCH
 10
389.6500179468749
 20
251.76776695296638
 30
0.0
 70
0
  0
VERTEX
  5
122
  8
HATCH
 10
431.7677669529664
 20
209.65001794687493
 30
0.0
 42
-1.0
 70
0
  0
SEQEND
  5
11E
  8
0
  0
POLYLINE
  5
123
  8
HATCH
 66
1
 10
0.0
 20
0.0
 30
0.0
 70
1
  0
VERTEX
  5
125
  8
HATCH
 10
428.2322330470336
 20
189.14392129246502
 30
0.0
 70
0
  0
VERTEX
  5
126
  8
HATCH
 10
369.143921292465
 20
248.23223304703362
 30
0.0
 42
-1.0
 70
0
  0
VERTEX
  5
127
  8
HATCH
 10
372.67945519839776
 20
251.76776695296638
 30
0.0
 70
0
  0
VERTEX
  5
128
  8
HATCH
 10
431.7677669529664
 20
192.6794551983978
 30
0.0
 42
-1.0
 70
0
  0
SEQEND
  5
124
  8
0
  0
POLYLINE
  5
129
  8
HATCH
 66
1
 10
0.0
 20
0.0
 30
0.0
 70
1
  0
VERTEX
  5
12B
  8
HATCH
 10
428.2322330470336
 20
172.17335854398794
 30
0.0
 70
0
  0
VERTEX
  5
12C
  8
HATCH
 10
352.17335854398794
 20
248.23223304703365
 30
0.0
 42
-1.0
 70
0
  0
VERTEX
  5
12D
  8
HATCH
 10
355.7088924499207
 20
251.76776695296635
 30
0.0
 70
0
  0
VERTEX
  5
12E
  8
HATCH
 10
431.7677669529664
 20
175.70889244992065
 30
0.0
 42
-1.0
 70
0
  0
SEQEND
  5
12A
  8
0
  0
POLYLINE
  5
12F
  8
HATCH
 66
1
 10
0.0
 20
0.0
 30
0.0
 70
1
  0
VERTEX
  5
131
  8
HATCH
 10
428.2322330470336
 20
155.2027957955108
 30
0.0
 70
0
  0
VERTEX
  5
132
  8
HATCH
 10
335.2027957955108
 20
248.23223304703365
 30
0.0
 42
-1.0
 70
0
  0
VERTEX
  5
133
  8
HATCH
 10
338.73832970144355
 20
251.76776695296635
 30
0.0
 70
0
  0
VERTEX
  5
134
  8
HATCH
 10
431.7677669529664
 20
158.73832970144352
 30
0.0
 42
-1.0
 70
0
  0
SEQEND
  5
130
  8
0
  0
POLYLINE
  5
135
  8
HATCH
 66
1
 10
0.0
 20
0.0
 30
0.0
 70
1
  0
VERTEX
  5
137
  8
HATCH
 10
428.2322330470336
 20
138.23223304703365
 30
0.0
 70
0
  0
VERTEX
  5
138
  8
HATCH
 10
318.2322330470336
 20
248.23223304703365
 30
0.0
 42
-1.0
 70
0
  0
VERTEX
  5
139
  8
HATCH
 10
321.7677669529664
 20
251.76776695296635
 30
0.0
 70
0
  0
VERTEX
  5
13A
  8
HATCH
 10
431.7677669529664
 20
141.76776695296635
 30
0.0
 42
-1.0
 70
0
  0
SEQEND
  5
136
  8
0
  0
POLYLINE
  5
13B
  8
HATCH
 66
1
 10
0.0
 20
0.0
 30
0.0
 70
1
  0
VERTEX
  5
13D
  8
HATCH
 10
411.26167029855645
 20
138.23223304703365
 30
0.0
 70
0
  0
VERTEX
  5
13E
  8
HATCH
 10
318.2322330470336
 20
231.26167029855648
 30
0.0
 42
-1.0
 70
0
  0
VERTEX
  5
13F
  8
HATCH
 10
321.7677669529664
 20
234.7972042044892
 30
0.0
 70
0
  0
VERTEX
  5
140
  8
HATCH
 10
414.7972042044892
 20
141.76776695296635
 30
0.0
 42
-1.0
 70
0
  0
SEQEND
  5
13C
  8
0
  0
POLYLINE
  5
141
  8
HATCH
 66
1
 10
0.0
 20
0.0
 30
0.0
 70
1
  0
VERTEX
  5
143
  8
HATCH
 10
394.2911075500793
 20
138.23223304703365
 30
0.0
 70
0
  0
VERTEX
  5
144
  8
HATCH
 10
318.2322330470336
 20
214.29110755007935
 30
0.0
 42
-1.0
 70
0
  0
VERTEX
  5
145
  8
HATCH
 10
321.7677669529664
 20
217.82664145601206
 30
0.0
 70
0
  0
VERTEX
  5
146
  8
HATCH
 10
397.82664145601206
 20
141.76776695296635
 30
0.0
 42
-1.0
 70
0
  0
SEQEND
  5
142
  8
0
  0
POLYLINE
  5
147
  8
HATCH
 66
1
 10
0.0
 20
0.0
 30
0.0
 70
1
  0
VERTEX
  5
149
  8
HATCH
 10
377.32054480160224
 20
138.23223304703362
 30
0.0
 70
0
  0
VERTEX
  5
14A
  8
HATCH
 10
318.2322330470336
 20
197.3205448016022
 30
0.0
 42
-1.0
 70
0
  0
VERTEX
  5
14B
  8
HATCH
 10
321.7677669529664
 20
200.85607870753498
 30
0.0
 70
0
  0
VERTEX
  5
14C
  8
HATCH
 10
380.856078707535
 20
141.76776695296638
 30
0.0
 42
-1.0
 70
0
  0
SEQEND
  5
148
  8
0
  0
POLYLINE
  5
14D
  8
HATCH
 66
1
 10
0.0
 20
0.0
 30
0.0
 70
1
  0
VERTEX
  5
14F
  8
HATCH
 10
360.3499820531251
 20
138.23223304703362
 30
0.0
 70
0
  0
VERTEX
  5
150
  8
HATCH
 10
318.2322330470336
 20
180.34998205312507
 30
0.0
 42
-1.0
 70
0
  0
VERTEX
  5
151
  8
HATCH
 10
321.7677669529664
 20
183.88551595905784
 30
0.0
 70
0
  0
VERTEX
  5
152
  8
HATCH
 10
363.88551595905784
 20
141.76776695296638
 30
0.0
 42
-1.0
 70
0
  0
SEQEND
  5
14E
  8
0
  0
POLYLINE
  5
153
  8
HATCH
 66
1
 10
0.0
 20
0.0
 30
0.0
 70
1
  0
VERTEX
  5
155
  8
HATCH
 10
343.3794193046479
 20
138.23223304703365
 30
0.0
 70
0
  0
VERTEX
  5
156
  8
HATCH
 10
318.2322330470336
 20
163.37941930464794
 30
0.0
 42
-1.0
 70
0
  0
VERTEX
  5
157
  8
HATCH
 10
321.7677669529664
 20
166.91495321058065
 30
0.0
 70
0
  0
VERTEX
  5
158
  8
HATCH
 10
346.9149532105807
 20
141.76776695296635
 30
0.0
 42
-1.0
 70
0
  0
SEQEND
  5
154
  8
0
  0
POLYLINE
  5
159
  8
HATCH
 66
1
 10
0.0
 20
0.0
 30
0.0
 70
1
  0
VERTEX
  5
15B
  8
HATCH
 10
326.40885655617075
 20
138.23223304703365
 30
0.0
 70
0
  0
VERTEX
  5
15C
  8
HATCH
 10
318.2322330470336
 20
146.40885655617078
 30
0.0
 42
-1.0
 70
0
  0
VERTEX
  5
15D
  8
HATCH
 10
321.7677669529664
 20
149.94439046210348
 30
0.0
 70
0
  0
VERTEX
  5
15E
  8
HATCH
 10
329.9443904621035
 20
141.76776695296635
 30
0.0
 42
-1.0
 70
0
  0
SEQEND
  5
15A
  8
0
  0
POLYLINE
  5
15F
  8
HATCH
 66
1
 10
0.0
 20
0.0
 30
0.0
 70
1
  0
VERTEX
  5
161
  8
HATCH
 10
470.0
 20
140.0
 30
0.0
 70
0
  0
VERTEX
  5
162
  8
HATCH
 10
470.0
 20
170.0
 30
0.0
 42
-1.0
 70
0
  0
VERTEX
  5
163
  8
HATCH
 10
475.0
 20
170.0
 30
0.0
 70
0
  0
VERTEX
  5
164
  8
HATCH
 10
475.0
 20
140.0
 30
0.0
 42
-1.0
 70
0
  0
SEQEND
  5
160
  8
0
  0
POLYLINE
  5
165
  8
HATCH
 66
1
 10
0.0
 20
0.0
 30
0.0
 70
1
  0
VERTEX
  5
167
  8
HATCH
 10
470.0
 20
180.0
 30
0.0
 70
0
  0
VERTEX
  5
168
  8
HATCH
 10
470.0
 20
210.0
 30
0.0
 42
-1.0
 70
0
  0
VERTEX
  5
169
  8
HATCH
 10
475.0
 20
210.0
 30
0.0
 70
0
  0
VERTEX
  5
16A
  8
HATCH
 10
475.0
 20
180.0
 30
0.0
 42
-1.0
 70
0
  0
SEQEND
  5
166
  8
0
  0
POLYLINE
  5
16B
  8
HATCH
 66
1
 10
0.0
 20
0.0
 30
0.0
 70
1
  0
VERTEX
  5
16D
  8
HATCH
 10
470.0
 20
220.0
 30
0.0
 70
0
  0
VERTEX
  5
16E
  8
HATCH
 10
470.0
 20
250.0
 30
0.0
 42
-1.0
 70
0
  0
VERTEX
  5
16F
  8
HATCH
 10
475.0
 20
250.0
 30
0.0
 70
0
  0
VERTEX
  5
170
  8
HATCH
 10
475.0
 20
220.0
 30
0.0
 42
-1.0
 70
0
  0
SEQEND
  5
16C
  8
0
  0
POLYLINE
  5
171
  8
HATCH
 66
1
 10
0.0
 20
0.0
 30
0.0
 70
1
  0
VERTEX
  5
173
  8
HATCH
 10
485.0
 20
160.0
 30
0.0
 70
0
  0
VERTEX
  5
174
  8
HATCH
 10
485.0
 20
190.0
 30
0.0
 42
-1.0
 70
0
  0
VERTEX
  5
175
  8
HATCH
 10
490.0
 20
190.0
 30
0.0
 70
0
  0
VERTEX
  5
176
  8
HATCH
 10
490.0
 20
160.0
 30
0.0
 42
-1.0
 70
0
  0
SEQEND
  5
172
  8
0
  0
POLYLINE
  5
177
  8
HATCH
 66
1
 10
0.0
 20
0.0
 30
0.0
 70
1
  0
VERTEX
  5
179
  8
HATCH
 10
485.0
 20
200.0
 30
0.0
 70
0
  0
VERTEX
  5
17A
  8
HATCH
 10
485.0
 20
230.0
 30
0.0
 42
-1.0
 70
0
  0
VERTEX
  5
17B
  8
HATCH
 10
490.0
 20
230.0
 30
0.0
 70
0
  0
VERTEX
  5
17C
  8
HATCH
 10
490.0
 20
200.0
 30
0.0
 42
-1.0
 70
0
  0
SEQEND
  5
178
  8
0
  0
POLYLINE
  5
17D
  8
HATCH
 66
1
 10
0.0
 20
0.0
 30
0.0
 70
1
  0
VERTEX
  5
17F
  8
HATCH
 10
500.0
 20
140.0
 30
0.0
 70
0
  0
VERTEX
  5
180
  8
HATCH
 10
500.0
 20
170.0
 30
0.0
 42
-1.0
 70
0
  0
VERTEX
  5
181
  8
HATCH
 10
505.0
 20
170.0
 30
0.0
 70
0
  0
VERTEX
  5
182
  8
HATCH
 10
505.0
 20
140.0
 30
0.0
 42
-1.0
 70
0
  0
SEQEND
  5
17E
  8
0
  0
POLYLINE
  5
183
  8
HATCH
 66
1
 10
0.0
 20
0.0
 30
0.0
 70
1
  0
VERTEX
  5
185
  8
HATCH
 10
500.0
 20
180.0
 30
0.0
 70
0
  0
VERTEX
  5
186
  8
HATCH
 10
500.0
 20
210.0
 30
0.0
 42
-1.0
 70
0
  0
VERTEX
  5
187
  8
HATCH
 10
505.0
 20
210.0
 30
0.0
 70
0
  0
VERTEX
  5
188
  8
HATCH
 10
505.0
 20
180.0
 30
0.0
 42
-1.0
 70
0
  0
SEQEND
  5
184
  8
0
  0
POLYLINE
  5
189
  8
HATCH
 66
1
 10
0.0
 20
0.0
 30
0.0
 70
1
  0
VERTEX
  5
18B
  8
HATCH
 10
500.0
 20
220.0
 30
0.0
 70
0
  0
VERTEX
  5
18C
  8
HATCH
 10
500.0
 20
250.0
 30
0.0
 42
-1.0
 70
0
  0
VERTEX
  5
18D
  8
HATCH
 10
505.0
 20
250.0
 30
0.0
 70
0
  0
VERTEX
  5
18E
  8
HATCH
 10
505.0
 20
220.0
 30
0.0
 42
-1.0
 70
0
  0
SEQEND
  5
18A
  8
0
  0
POLYLINE
  5
18F
  8
HATCH
 66
1
 10
0.0
 20
0.0
 30
0.0
 70
1
  0
VERTEX
  5
191
  8
HATCH
 10
515.0
 20
160.0
 30
0.0
 70
0
  0
VERTEX
  5
192
  8
HATCH
 10
515.0
 20
190.0
 30
0.0
 42
-1.0
 70
0
  0
VERTEX
  5
193
  8
HATCH
 10
520.0
 20
190.0
 30
0.0
 70
0
  0
VERTEX
  5
194
  8
HATCH
 10
520.0
 20
160.0
 30
0.0
 42
-1.0
 70
0
  0
SEQEND
  5
190
  8
0
  0
POLYLINE
  5
195
  8
HATCH
 66
1
 10
0.0
 20
0.0
 30
0.0
 70
1
  0
VERTEX
  5
197
  8
HATCH
 10
515.0
 20
200.0
 30
0.0
 70
0
  0
VERTEX
  5
198
  8
HATCH
 10
515.0
 20
230.0
 30
0.0
 42
-1.0
 70
0
  0
VERTEX
  5
199
  8
HATCH
 10
520.0
 20
230.0
 30
0.0
 70
0
  0
VERTEX
  5
19A
  8
HATCH
 10
520.0
 20
200.0
 30
0.0
 42
-1.0
 70
0
  0
SEQEND
  5
196
  8
0
  0
POLYLINE
  5
19B
  8
HATCH
 66
1
 10
0.0
 20
0.0
 30
0.0
 70
1
  0
VERTEX
  5
19D
  8
HATCH
 10
530.0
 20
140.0
 30
0.0
 70
0
  0
VERTEX
  5
19E
  8
HATCH
 10
530.0
 20
170.0
 30
0.0
 42
-1.0
 70
0
  0
VERTEX
  5
19F
  8
HATCH
 10
535.0
 20
170.0
 30
0.0
 70
0
  0
VERTEX
  5
1A0
  8
HATCH
 10
535.0
 20
140.0
 30
0.0
 42
-1.0
 70
0
  0
SEQEND
  5
19C
  8
0
  0
POLYLINE
  5
1A1
  8
HATCH
 66
1
 10
0.0
 20
0.0
 30
0.0
 70
1
  0
VERTEX
  5
1A3
  8
HATCH
 10
530.0
 20
180.0
 30
0.0
 70
0
  0
VERTEX
  5
1A4
  8
HATCH
 10
530.0
 20
210.0
 30
0.0
 42
-1.0
 70
0
  0
VERTEX
  5
1A5
  8
HATCH
 10
535.0
 20
210.0
 30
0.0
 70
0
  0
VERTEX
  5
1A6
  8
HATCH
 10
535.0
 20
180.0
 30
0.0
 42
-1.0
 70
0
  0
SEQEND
  5
1A2
  8
0
  0
POLYLINE
  5
1A7
  8
HATCH
 66
1
 10
0.0
 20
0.0
 30
0.0
 70
1
  0
VERTEX
  5
1A9
  8
HATCH
 10
530.0
 20
220.0
 30
0.0
 70
0
  0
VERTEX
  5
1AA
  8
HATCH
 10
530.0
 20
250.0
 30
0.0
 42
-1.0
 70
0
  0
VERTEX
  5
1AB
  8
HATCH
 10
535.0
 20
250.0
 30
0.0
 70
0
  0
VERTEX
  5
1AC
  8
HATCH
 10
535.0
 20
220.0
 30
0.0
 42
-1.0
 70
0
  0
SEQEND
  5
1A8
  8
0
  0
POLYLINE
  5
1AD
  8
HATCH
 66
1
 10
0.0
 20
0.0
 30
0.0
 70
1
  0
VERTEX
  5
1AF
  8
HATCH
 10
545.0
 20
160.0
 30
0.0
 70
0
  0
VERTEX
  5
1B0
  8
HATCH
 10
545.0
 20
190.0
 30
0.0
 42
-1.0
 70
0
  0
VERTEX
  5
1B1
  8
HATCH
 10
550.0
 20
190.0
 30
0.0
 70
0
  0
VERTEX
  5
1B2
  8
HATCH
 10
550.0
 20
160.0
 30
0.0
 42
-1.0
 70
0
  0
SEQEND
  5
1AE
  8
0
  0
POLYLINE
  5
1B3
  8
HATCH
 66
1
 10
0.0
 20
0.0
 30
0.0
 70
1
  0
VERTEX
  5
1B5
  8
HATCH
 10
545.0
 20
200.0
 30
0.0
 70
0
  0
VERTEX
  5
1B6
  8
HATCH
 10
545.0
 20
230.0
 30
0.0
 42
-1.0
 70
0
  0
VERTEX
  5
1B7
  8
HATCH
 10
550.0
 20
230.0
 30
0.0
 70
0
  0
VERTEX
  5
1B8
  8
HATCH
 10
550.0
 20
200.0
 30
0.0
 42
-1.0
 70
0
  0
SEQEND
  5
1B4
  8
0
  0
POLYLINE
  5
1B9
  8
HATCH
 66
1
 10
0.0
 20
0.0
 30
0.0
 70
1
  0
VERTEX
  5
1BB
  8
HATCH
 10
560.0
 20
140.0
 30
0.0
 70
0
  0
VERTEX
  5
1BC
  8
HATCH
 10
560.0
 20
170.0
 30
0.0
 42
-1.0
 70
0
  0
VERTEX
  5
1BD
  8
HATCH
 10
565.0
 20
170.0
 30
0.0
 70
0
  0
VERTEX
  5
1BE
  8
HATCH
 10
565.0
 20
140.0
 30
0.0
 42
-1.0
 70
0
  0
SEQEND
  5
1BA
  8
0
  0
POLYLINE
  5
1BF
  8
HATCH
 66
1
 10
0.0
 20
0.0
 30
0.0
 70
1
  0
VERTEX
  5
1C1
  8
HATCH
 10
560.0
 20
180.0
 30
0.0
 70
0
  0
VERTEX
  5
1C2
  8
HATCH
 10
560.0
 20
210.0
 30
0.0
 42
-1.0
 70
0
  0
VERTEX
  5
1C3
  8
HATCH
 10
565.0
 20
210.0
 30
0.0
 70
0
  0
VERTEX
  5
1C4
  8
HATCH
 10
565.0
 20
180.0
 30
0.0
 42
-1.0
 70
0
  0
SEQEND
  5
1C0
  8
0
  0
POLYLINE
  5
1C5
  8
HATCH
 66
1
 10
0.0
 20
0.0
 30
0.0
 70
1
  0
VERTEX
  5
1C7
  8
HATCH
 10
560.0
 20
220.0
 30
0.0
 70
0
  0
VERTEX
  5
1C8
  8
HATCH
 10
560.0
 20
250.0
 30
0.0
 42
-1.0
 70
0
  0
VERTEX
  5
1C9
  8
HATCH
 10
565.0
 20
250.0
 30
0.0
 70
0
  0
VERTEX
  5
1CA
  8
HATCH
 10
565.0
 20
220.0
 30
0.0
 42
-1.0
 70
0
  0
SEQEND
  5
1C6
  8
0
  0
POLYLINE
  5
1CB
  8
HATCH
 66
1
 10
0.0
 20
0.0
 30
0.0
 70
1
  0
VERTEX
  5
1CD
  8
HATCH
 10
575.0
 20
160.0
 30
0.0
 70
0
  0
VERTEX
  5
1CE
  8
HATCH
 10
575.0
 20
190.0
 30
0.0
 42
-1.0
 70
0
  0
VERTEX
  5
1CF
  8
HATCH
 10
580.0
 20
190.0
 30
0.0
 70
0
  0
VERTEX
  5
1D0
  8
HATCH
 10
580.0
 20
160.0
 30
0.0
 42
-1.0
 70
0
  0
SEQEND
  5
1CC
  8
0
  0
POLYLINE
  5
1D1
  8
HATCH
 66
1
 10
0.0
 20
0.0
 30
0.0
 70
1
  0
VERTEX
  5
1D3
  8
HATCH
 10
575.0
 20
200.0
 30
0.0
 70
0
  0
VERTEX
  5
1D4
  8
HATCH
 10
575.0
 20
230.0
 30
0.0
 42
-1.0
 70
0
  0
VERTEX
  5
1D5
  8
HATCH
 10
580.0
 20
230.0
 30
0.0
 70
0
  0
VERTEX
  5
1D6
  8
HATCH
 10
580.0
 20
200.0
 30
0.0
 42
-1.0
 70
0
  0
SEQEND
  5
1D2
  8
0
  0
POLYLINE
  5
1D7
  8
HATCH
 66
1
 10
0.0
 20
0.0
 30
0.0
 70
1
  0
VERTEX
  5
1D9
  8
HATCH
 10
20.0
 20
25.0
 30
0.0
 70
0
  0
VERTEX
  5
1DA
  8
HATCH
 10
50.0
 20
25.0
 30
0.0
 42
-1.0
 70
0
  0
VERTEX
  5
1DB
  8
HATCH
 10
50.0
 20
20.0
 30
0.0
 70
0
  0
VERTEX
  5
1DC
  8
HATCH
 10
20.0
 20
20.0
 30
0.0
 42
-1.0
 70
0
  0
SEQEND
  5
1D8
  8
0
  0
POLYLINE
  5
1DD
  8
HATCH
 66
1
 10
0.0
 20
0.0
 30
0.0
 70
1
  0
VERTEX
  5
1DF
  8
HATCH
 10
60.0
 20
25.0
 30
0.0
 70
0
  0
VERTEX
  5
1E0
  8
HATCH
 10
90.0
 20
25.0
 30
0.0
 42
-1.0
 70
0
  0
VERTEX
  5
1E1
  8
HATCH
 10
90.0
 20
20.0
 30
0.0
 70
0
  0
VERTEX
  5
1E2
  8
HATCH
 10
60.0
 20
20.0
 30
0.0
 42
-1.0
 70
0
  0
SEQEND
  5
1DE
  8
0
  0
POLYLINE
  5
1E3
  8
HATCH
 66
1
 10
0.0
 20
0.0
 30
0.0
 70
1
  0
VERTEX
  5
1E5
  8
HATCH
 10
100.0
 20
25.0
 30
0.0
 70
0
  0
VERTEX
  5
1E6
  8
HATCH
 10
130.0
 20
25.0
 30
0.0
 42
-1.0
 70
0
  0
VERTEX
  5
1E7
  8
HATCH
 10
130.0
 20
20.0
 30
0.0
 70
0
  0
VERTEX
  5
1E8
  8
HATCH
 10
100.0
 20
20.0
 30
0.0
 42
-1.0
 70
0
  0
SEQEND
  5
1E4
  8
0
  0
POLYLINE
  5
1E9
  8
HATCH
 66
1
 10
0.0
 20
0.0
 30
0.0
 70
1
  0
VERTEX
  5
1EB
  8
HATCH
 10
170.0
 20
25.0
 30
0.0
 70
0
  0
VERTEX
  5
1EC
  8
HATCH
 10
200.0
 20
25.0
 30
0.0
 42
-1.0
 70
0
  0
VERTEX
  5
1ED
  8
HATCH
 10
200.0
 20
20.0
 30
0.0
 70
0
  0
VERTEX
  5
1EE
  8
HATCH
 10
170.0
 20
20.0
 30
0.0
 42
-1.0
 70
0
  0
SEQEND
  5
1EA
  8
0
  0
POLYLINE
  5
1EF
  8
HATCH
 66
1
 10
0.0
 20
0.0
 30
0.0
 70
1
  0
VERTEX
  5
1F1
  8
HATCH
 10
210.0
 20
25.0
 30
0.0
 70
0
  0
VERTEX
  5
1F2
  8
HATCH
 10
240.0
 20
25.0
 30
0.0
 42
-1.0
 70
0
  0
VERTEX
  5
1F3
  8
HATCH
 10
240.0
 20
20.0
 30
0.0
 70
0
  0
VERTEX
  5
1F4
  8
HATCH
 10
210.0
 20
20.0
 30
0.0
 42
-1.0
 70
0
  0
SEQEND
  5
1F0
  8
0
  0
POLYLINE
  5
1F5
  8
HATCH
 66
1
 10
0.0
 20
0.0
 30
0.0
 70
1
  0
VERTEX
  5
1F7
  8
HATCH
 10
250.0
 20
25.0
 30
0.0
 70
0
  0
VERTEX
  5
1F8
  8
HATCH
 10
280.0
 20
25.0
 30
0.0
 42
-1.0
 70
0
  0
VERTEX
  5
1F9
  8
HATCH
 10
280.0
 20
20.0
 30
0.0
 70
0
  0
VERTEX
  5
1FA
  8
HATCH
 10
250.0
 20
20.0
 30
0.0
 42
-1.0
 70
0
  0
SEQEND
  5
1F6
  8
0
  0
POLYLINE
  5
1FB
  8
HATCH
 66
1
 10
0.0
 20
0.0
 30
0.0
 70
1
  0
VERTEX
  5
1FD
  8
HATCH
 10
320.0
 20
25.0
 30
0.0
 70
0
  0
VERTEX
  5
1FE
  8
HATCH
 10
350.0
 20
25.0
 30
0.0
 42
-1.0
 70
0
  0
VERTEX
  5
1FF
  8
HATCH
 10
350.0
 20
20.0
 30
0.0
 70
0
  0
VERTEX
  5
200
  8
HATCH
 10
320.0
 20
20.0
 30
0.0
 42
-1.0
 70
0
  0
SEQEND
  5
1FC
  8
0
  0
POLYLINE
  5
201
  8
HATCH
 66
1
 10
0.0
 20
0.0
 30
0.0
 70
1
  0
VERTEX
  5
203
  8
HATCH
 10
360.0
 20
25.0
 30
0.0
 70
0
  0
VERTEX
  5
204
  8
HATCH
 10
390.0
 20
25.0
 30
0.0
 42
-1.0
 70
0
  0
VERTEX
  5
205
  8
HATCH
 10
390.0
 20
20.0
 30
0.0
 70
0
  0
VERTEX
  5
206
  8
HATCH
 10
360.0
 20
20.0
 30
0.0
 42
-1.0
 70
0
  0
SEQEND
  5
202
  8
0
  0
POLYLINE
  5
207
  8
HATCH
 66
1
 10
0.0
 20
0.0
 30
0.0
 70
1
  0
VERTEX
  5
209
  8
HATCH
 10
400.0
 20
25.0
 30
0.0
 70
0
  0
VERTEX
  5
20A
  8
HATCH
 10
430.0
 20
25.0
 30
0.0
 42
-1.0
 70
0
  0
VERTEX
  5
20B
  8
HATCH
 10
430.0
 20
20.0
 30
0.0
 70
0
  0
VERTEX
  5
20C
  8
HATCH
 10
400.0
 20
20.0
 30
0.0
 42
-1.0
 70
0
  0
SEQEND
  5
208
  8
0
  0
POLYLINE
  5
20D
  8
HATCH
 66
1
 10
0.0
 20
0.0
 30
0.0
 70
1
  0
VERTEX
  5
20F
  8
HATCH
 10
470.0
 20
25.0
 30
0.0
 70
0
  0
VERTEX
  5
210
  8
HATCH
 10
500.0
 20
25.0
 30
0.0
 42
-1.0
 70
0
  0
VERTEX
  5
211
  8
HATCH
 10
500.0
 20
20.0
 30
0.0
 70
0
  0
VERTEX
  5
212
  8
HATCH
 10
470.0
 20
20.0
 30
0.0
 42
-1.0
 70
0
  0
SEQEND
  5
20E
  8
0
  0
POLYLINE
  5
213
  8
HATCH
 66
1
 10
0.0
 20
0.0
 30
0.0
 70
1
  0
VERTEX
  5
215
  8
HATCH
 10
510.0
 20
25.0
 30
0.0
 70
0
  0
VERTEX
  5
216
  8
HATCH
 10
540.0
 20
25.0
 30
0.0
 42
-1.0
 70
0
  0
VERTEX
  5
217
  8
HATCH
 10
540.0
 20
20.0
 30
0.0
 70
0
  0
VERTEX
  5
218
  8
HATCH
 10
510.0
 20
20.0
 30
0.0
 42
-1.0
 70
0
  0
SEQEND
  5
214
  8
0
  0
POLYLINE
  5
219
  8
HATCH
 66
1
 10
0.0
 20
0.0
 30
0.0
 70
1
  0
VERTEX
  5
21B
  8
HATCH
 10
550.0
 20
25.0
 30
0.0
 70
0
  0
VERTEX
  5
21C
  8
HATCH
 10
580.0
 20
25.0
 30
0.0
 42
-1.0
 70
0
  0
VERTEX
  5
21D
  8
HATCH
 10
580.0
 20
20.0
 30
0.0
 70
0
  0
VERTEX
  5
21E
  8
HATCH
 10
550.0
 20
20.0
 30
0.0
 42
-1.0
 70
0
  0
SEQEND
  5
21A
  8
0
  0
ENDSEC
  0
EOF
